<?xml version="1.0" encoding="UTF-8"?><svg id="a" xmlns="http://www.w3.org/2000/svg" viewBox="0 0 600 554.05"><path d="M0,208.96c3.6-14.08,13.36-21.54,26.61-26.12,16.87-5.83,33.97-10.12,51.79-11.63,1.76-.15,4.35-1.94,4.88-3.53,23.59-70.62,74.64-109.6,145.1-126.29,29.11-6.89,58.77-7.29,88.47-7.61,51-.56,101.86-3.15,152.15-12.36,22.47-4.12,44.59-9.52,65.43-19.34,11.95-5.63,25.74,.62,27.97,13.31,10.52,59.99,6.48,117.9-26.7,171.08-14.3,22.91-33.56,40.98-56.31,55.41-2.62,1.66-5.28,3.29-8.03,5,6.54,12.69,13.59,24.86,19.25,37.65,18.78,42.43,36.79,85.19,55.62,127.6,10.93,24.62,22.89,48.78,40.75,69.4,2.17,2.51,4.58,4.8,6.83,7.24,10.66,11.58,7.12,27.61-7.62,33.24-27.03,10.31-54.85,17.88-83.27,23.24-37.76,7.12-75.87,10.36-114.22,8.11-73.28-4.31-141.88-23.75-202.26-66.84-52.37-37.37-82.8-88.7-92.76-152.15-4.63-29.49-6.31-59.01,1.27-88.35,.63-2.45,1.42-4.87,2.11-7.3,.68-2.39,1.33-4.78,2.13-7.65-18.91-1.19-36.41,2.43-53.66,8.76-6.37,2.34-13.7,4.04-20.31,3.36-13.77-1.41-21.17-11.11-25.23-23.67v-10.55Zm173.08-50.67c2.8,.64,4.49,1.08,6.21,1.41,38.83,7.35,75.05,21.4,107.51,43.99,75.99,52.89,118.9,127.82,142.08,215.62,1.88,7.13-.05,11.5-5.27,13.76-5.31,2.3-9.64,.17-13.82-6.32-11.09-17.22-21.7-34.79-33.58-51.45-34.7-48.63-75.82-90.76-127.45-121.68-35.4-21.2-73.25-35.49-114.66-39.46-4.19-.4-6.49,.42-7.98,4.44-2.84,7.66-6.42,15.07-8.98,22.82-9.91,29.93-8.4,60.4-3.58,90.93,9.24,58.46,37.45,105.47,86.13,139.33,56.5,39.3,120.28,57.51,188.31,61.64,53.49,3.25,105.94-3.91,157.36-18.76,11.35-3.28,22.51-7.23,34.07-10.98-6.13-7.5-11.98-14.02-17.11-21.06-17.71-24.29-29.83-51.6-41.87-78.92-18.48-41.91-35.99-84.29-55.67-125.63-17.25-36.23-38.99-69.91-67.66-98.5-43.94-43.83-96.17-63.36-158.18-52.42-24.22,4.28-45.77,14.97-65.84,31.23ZM543.32,20.15c-27.86,12.79-56.57,19-85.7,23.57-49.51,7.77-99.43,9.93-149.43,10.17-31.97,.15-63.6,2.28-94.22,12.23-50.14,16.3-87.62,46.84-107.66,96.71-.99,2.46-1.67,5.05-2.62,7.96,4.65,.63,8.87,.56,12.63,1.85,9.83,3.37,15.49-.36,22.11-8.14,55.71-65.51,145.85-76.16,217.08-40.56,33.57,16.78,59.84,42.12,82.15,71.82,8.17,10.88,15.69,22.25,23.66,33.64,27.91-15.93,50.11-37.31,65.02-65.77,23.76-45.34,25.05-93.41,16.98-143.47Zm-161.15,327.02c-6.05-10.81-11.7-21.86-18.21-32.39-47.46-76.79-114.04-125.32-204.78-137.85-1.92-.27-4.8-.35-5.81,.77-4.65,5.12-8.79,10.7-13.43,16.51,104.08,15.34,178.66,75.07,242.24,152.95ZM117.13,192.94c-31.66-5-61.56-1.2-90.3,11.5-5.97,2.64-8.23,8.18-5.95,13.35,2.36,5.34,8.03,7.52,14.33,4.85,21.95-9.32,44.74-13.32,68.55-11.52,1.49,.11,3.86-.41,4.47-1.44,3.14-5.31,5.84-10.88,8.9-16.74Z"/></svg>