<?xml version="1.0" encoding="UTF-8"?><svg id="a" xmlns="http://www.w3.org/2000/svg" viewBox="0 0 305.07 600"><path d="M164.41,0c13.81,3.24,28.26,4.85,41.32,9.99,56.07,22.11,89.72,63.43,97.92,123.18,11.26,82-45.74,156.97-127.53,170.02-4.19,.67-8.44,1.02-13.15,1.58,0,2.94,0,5.44,0,7.95,0,90.45,0,180.91-.03,271.36,0,2.9-.14,5.89-.8,8.69-1.14,4.79-4.75,7.22-9.45,7.22-4.7,0-8.31-2.43-9.45-7.22-.67-2.8-.8-5.79-.8-8.69-.04-90.45-.03-180.91-.03-271.36v-6.94c-12.59-2.85-24.89-4.47-36.38-8.42-54-18.57-88.28-55.83-102-111.28C-11.1,125.03,17.6,56.64,71.25,23.68,91.73,11.1,113.73,3.32,137.62,.87c1.13-.12,2.23-.57,3.34-.87,7.82,0,15.63,0,23.45,0Zm120.57,152.55c-.01-72.57-60.24-132.7-132.48-132.26-72.75,.44-131.76,59.42-132.11,132.04-.35,72.46,59.43,132.38,132.19,132.48,72.66,.1,132.42-59.6,132.4-132.27Z"/><path d="M142.33,111.83c.04,22.38-18.08,40.6-40.44,40.63-22.32,.03-40.64-18.21-40.67-40.49-.03-22.3,18.2-40.56,40.54-40.6,22.4-.04,40.53,18.04,40.57,40.46Zm-20.19,.36c.17-11.15-9.17-20.64-20.32-20.64-10.87,0-20.15,9.14-20.37,20.06-.22,10.99,9.31,20.67,20.37,20.67,10.89,0,20.15-9.15,20.32-20.08Z"/></svg>