<?xml version="1.0" encoding="UTF-8"?><svg id="a" xmlns="http://www.w3.org/2000/svg" viewBox="0 0 563.76 600"><path d="M168.76,600c-12.05-3.6-21.62-10.1-25.07-22.91-1.2-4.45-1.58-9.24-1.59-13.88-.1-55.65-.1-111.31,0-166.96,0-4.14-.86-7.32-3.92-10.38-11.45-11.45-18.44-25.68-23.15-40.86-7.92-25.48-15.87-50.99-22.42-76.83-8.24-32.5-20.16-63.5-34.46-93.69C40.61,137.49,22.96,100.55,5.32,63.6-4.25,43.56-.96,23.32,15.59,10.23,21.74,5.37,30.14,3.33,37.51,0h11.72c9.68,3.16,19.27,6.61,25.65,15.17,3.12,4.19,5.92,8.71,8.26,13.39,17.68,35.41,35.2,70.89,52.78,106.35,.86,1.74,1.79,3.45,2.85,5.49,15.58-19.6,34.58-24.4,57.71-13.76,5.97-13.59,15.93-22.96,30.65-26.17,14.5-3.16,27.35,.9,37.09,9.62,7.83-5.79,14.41-12.68,22.45-16.22,22.86-10.06,46.59,.21,56.45,23.39,11.06,26.01,21.9,52.11,32.84,78.16,.74,1.77,1.53,3.51,2.71,6.22,1.76-2.37,3.02-4.19,4.39-5.91,19.87-24.82,38.75-50.53,59.93-74.17,18.89-21.09,41.01-39.03,67.52-50.42,20.69-8.88,47.59,4.2,52.32,25.31,2.49,11.08,0,21.35-7.98,29.23-26.04,25.74-44.39,56.69-61.66,88.5-17.95,33.06-35.75,66.21-54.53,98.8-10.95,19-25.34,35.72-41.57,50.46-17.29,15.71-24.49,35.18-24.56,57.89-.14,47.64-.29,95.28-.29,142.91,0,14.46-4.95,25.9-18.43,32.57-2.59,1.28-5.4,2.13-8.11,3.18H168.76Zm-6.72-192.87v5.74c0,49.99,0,99.98,0,149.97,0,13.35,3.8,17.2,16.96,17.2,51.75,0,103.5,0,155.24,0,14.6,0,17.87-3.3,17.91-17.9,.12-46.67,.35-93.34,.35-140.01,0-29.01,9.4-53.67,31.22-73.56,16.22-14.79,30.21-31.81,41.07-50.87,17.47-30.65,33.93-61.88,50.82-92.86,14.21-26.06,28.69-51.95,48.12-74.63,5.33-6.22,11.13-12.06,16.37-18.35,5.61-6.74,4.88-12.68-1.88-18.23-8.26-6.78-16.99-6.79-26.08-1.64-20.38,11.53-38.71,25.86-54.58,42.91-24.78,26.61-46.9,55.42-67.16,85.62-1.22,1.82-1.5,5.08-.8,7.2,1.88,5.72,4.64,11.15,6.85,16.77,2.6,6.61,.76,12.1-4.59,14.42-5.45,2.36-10.61-.06-13.66-6.44-.67-1.41-1.27-2.85-1.87-4.29-9.49-22.65-18.97-45.32-28.46-67.97-7.76-18.52-15.5-37.04-23.35-55.52-3.67-8.65-10.31-13.65-19.69-14.41-9.48-.77-16.71,3.53-21.56,11.44-4.8,7.84-4.32,16.24-1.87,24.86,1.73,6.07-1.08,11.22-6.15,12.75-5.67,1.71-10.62-.92-12.75-7.19-1.82-5.35-3.21-10.84-4.82-16.26-3.71-12.51-16.42-19.3-28.55-15.25-12.29,4.11-18.43,16.86-13.98,29.18,1.79,4.95,3.82,9.81,5.6,14.76,2.46,6.87,.66,12.2-4.69,14.42-5.73,2.38-10.97-.24-13.82-7.12-2.24-5.4-4.17-10.93-6.37-16.34-4.94-12.16-17.38-17.88-29.12-13.46-11.76,4.43-17.51,17-13.21,29.27,2.26,6.44,4.83,12.76,7.27,19.13,3.2,8.4,1.78,14.02-4.17,16.41-6.23,2.5-11.2-.73-14.58-9.52-2.86-7.46-5.14-15.2-8.62-22.35-13.64-28.05-27.66-55.93-41.53-83.87-9.53-19.21-18.92-38.5-28.62-57.63-5.84-11.51-17.35-16.2-28.35-12.08-13.5,5.06-18.42,19.06-11.59,33.38,15.88,33.25,32.01,66.38,47.68,99.73,16.1,34.25,30.89,68.94,40.26,105.86,6.94,27.35,14.98,54.49,24.11,81.19,9.96,29.14,28.28,50.07,61.32,53.59,4.89,.52,8.39,5.32,8.22,9.96-.17,4.71-3.88,8.95-8.83,9.44-2.87,.29-5.94,.25-8.72-.44-8.24-2.05-16.37-4.5-25.35-7.02Z"/><path d="M224.99,540.08c10.34,0,20.68-.08,31.02,.03,7.24,.08,11.34,3.69,11.45,9.71,.1,5.98-4.08,10.14-11.08,10.19-20.87,.15-41.75,.15-62.63,0-7.04-.05-11.22-4.14-11.16-10.12,.06-6.05,4.16-9.71,11.38-9.79,10.34-.11,20.68-.03,31.02-.03Z"/><path d="M307.06,540.19c10.13-.11,14.95,3.05,15.03,9.72,.08,6.82-5.01,10.2-15.43,10.14-2.52-.01-5.12,.01-7.54-.57-5.24-1.26-7.93-4.85-7.53-10.26,.41-5.45,3.7-8.41,9.04-9,2.12-.23,4.28-.04,6.43-.04Z"/></svg>